<svg width="8" height="3" viewBox="0 0 8 3" fill="none" xmlns="http://www.w3.org/2000/svg">
<path d="M1.272 2.06C1.096 2.06 0.944 1.996 0.816 1.868C0.696 1.74 0.636 1.584 0.636 1.4C0.636 1.216 0.696 1.064 0.816 0.944C0.944 0.816 1.096 0.752 1.272 0.752C1.448 0.752 1.6 0.816 1.728 0.944C1.856 1.064 1.92 1.216 1.92 1.4C1.92 1.584 1.856 1.74 1.728 1.868C1.6 1.996 1.448 2.06 1.272 2.06ZM3.95897 2.06C3.78297 2.06 3.63097 1.996 3.50297 1.868C3.38297 1.74 3.32297 1.584 3.32297 1.4C3.32297 1.216 3.38297 1.064 3.50297 0.944C3.63097 0.816 3.78297 0.752 3.95897 0.752C4.13497 0.752 4.28697 0.816 4.41497 0.944C4.54297 1.064 4.60697 1.216 4.60697 1.4C4.60697 1.584 4.54297 1.74 4.41497 1.868C4.28697 1.996 4.13497 2.06 3.95897 2.06ZM6.64594 2.06C6.46994 2.06 6.31794 1.996 6.18994 1.868C6.06994 1.74 6.00994 1.584 6.00994 1.4C6.00994 1.216 6.06994 1.064 6.18994 0.944C6.31794 0.816 6.46994 0.752 6.64594 0.752C6.82194 0.752 6.97394 0.816 7.10194 0.944C7.22994 1.064 7.29394 1.216 7.29394 1.4C7.29394 1.584 7.22994 1.74 7.10194 1.868C6.97394 1.996 6.82194 2.06 6.64594 2.06Z" fill="#650107"/>
</svg>
