<svg width="44" height="42" viewBox="0 0 44 42" fill="none" xmlns="http://www.w3.org/2000/svg">
<g filter="url(#filter0_d_130_548)">
<path fill-rule="evenodd" clip-rule="evenodd" d="M17.17 10L19 8H25L26.83 10H30C31.1 10 32 10.9 32 12V24C32 25.1 31.1 26 30 26H14C12.9 26 12 25.1 12 24V12C12 10.9 12.9 10 14 10H17.17ZM17 18C17 20.76 19.24 23 22 23C24.76 23 27 20.76 27 18C27 15.24 24.76 13 22 13C19.24 13 17 15.24 17 18ZM25.1998 18C25.1998 19.7673 23.7671 21.2 21.9998 21.2C20.2325 21.2 18.7998 19.7673 18.7998 18C18.7998 16.2327 20.2325 14.8 21.9998 14.8C23.7671 14.8 25.1998 16.2327 25.1998 18Z" fill="url(#paint0_linear_130_548)"/>
</g>
<defs>
<filter id="filter0_d_130_548" x="-2" y="-2" width="48" height="48" filterUnits="userSpaceOnUse" color-interpolation-filters="sRGB">
<feFlood flood-opacity="0" result="BackgroundImageFix"/>
<feColorMatrix in="SourceAlpha" type="matrix" values="0 0 0 0 0 0 0 0 0 0 0 0 0 0 0 0 0 0 127 0" result="hardAlpha"/>
<feOffset dy="4"/>
<feGaussianBlur stdDeviation="6"/>
<feColorMatrix type="matrix" values="0 0 0 0 0.996078 0 0 0 0 0.380392 0 0 0 0 0.419608 0 0 0 0.24 0"/>
<feBlend mode="normal" in2="BackgroundImageFix" result="effect1_dropShadow_130_548"/>
<feBlend mode="normal" in="SourceGraphic" in2="effect1_dropShadow_130_548" result="shape"/>
</filter>
<linearGradient id="paint0_linear_130_548" x1="22" y1="8" x2="22" y2="26" gradientUnits="userSpaceOnUse">
<stop stop-color="#FE858D"/>
<stop offset="1" stop-color="#FE616B"/>
</linearGradient>
</defs>
</svg>
