<svg width="16" height="16" viewBox="0 0 16 16" fill="none" xmlns="http://www.w3.org/2000/svg">
<circle cx="8" cy="8" r="7.5" fill="#FFEF61" stroke="white"/>
<path d="M11.6852 7.00076C11.6865 7.02277 11.6848 7.04517 11.6793 7.06742L11.1859 9.04125C11.161 9.14069 11.0719 9.21061 10.9694 9.21115L8.00864 9.22611C8.00825 9.22611 8.0079 9.22611 8.00751 9.22611H5.04673C4.94373 9.22611 4.85398 9.15595 4.8291 9.056L4.33564 7.07469C4.32996 7.05184 4.32831 7.02881 4.32975 7.00623C4.13886 6.94609 4 6.76746 4 6.55695C4 6.29721 4.21129 6.08592 4.47103 6.08592C4.73077 6.08592 4.94206 6.29721 4.94206 6.55695C4.94206 6.70322 4.87504 6.83409 4.77009 6.92055L5.3879 7.54303C5.54404 7.70036 5.76072 7.79056 5.98239 7.79056C6.24449 7.79056 6.49439 7.66609 6.65175 7.45755L7.66708 6.11224C7.58179 6.027 7.52897 5.90923 7.52897 5.77938C7.52897 5.51964 7.74026 5.30835 8 5.30835C8.25974 5.30835 8.47103 5.51964 8.47103 5.77938C8.47103 5.90534 8.42102 6.01968 8.34019 6.10428C8.34046 6.10464 8.34079 6.10494 8.34105 6.10533L9.34902 7.45435C9.50633 7.6649 9.75713 7.79059 10.02 7.79059C10.2437 7.79059 10.454 7.70347 10.6122 7.54527L11.2339 6.92357C11.1268 6.83714 11.0579 6.70501 11.0579 6.55695C11.0579 6.29721 11.2692 6.08592 11.529 6.08592C11.7887 6.08592 12 6.29721 12 6.55695C12 6.76184 11.8683 6.9361 11.6852 7.00076ZM11.1377 9.92891C11.1377 9.80504 11.0373 9.70461 10.9134 9.70461H5.11154C4.98766 9.70461 4.88724 9.80504 4.88724 9.92891V10.4672C4.88724 10.5911 4.98766 10.6915 5.11154 10.6915H10.9134C11.0373 10.6915 11.1377 10.5911 11.1377 10.4672V9.92891Z" fill="#FE616B"/>
</svg>
