<svg width="40" height="40" viewBox="0 0 40 40" fill="none" xmlns="http://www.w3.org/2000/svg">
<circle cx="20" cy="20" r="20" fill="#FE616B" fill-opacity="0.06"/>
<g clip-path="url(#clip0_55_657)">
<path d="M27.6768 26.1125L24.2955 22.7306C25.1173 21.5875 25.5691 20.2215 25.5691 18.7836C25.5691 16.9724 24.864 15.269 23.5815 13.9876C22.3018 12.7068 20.5973 12 18.785 12C16.9732 12 15.2693 12.7051 13.9885 13.9876C12.7076 15.2679 12.002 16.9718 12.002 18.7836C12.002 20.5953 12.7071 22.2987 13.9885 23.5807C15.2693 24.8615 16.9727 25.5683 18.785 25.5683C20.2223 25.5683 21.5872 25.1187 22.7315 24.2946L26.1128 27.6765C26.3296 27.8927 26.6116 28.0006 26.8948 28.0006C27.1785 28.0006 27.4611 27.8927 27.6768 27.6765C28.1087 27.244 28.1087 26.5444 27.6768 26.1125ZM15.553 22.0161C14.6892 21.1523 14.2141 20.0036 14.2141 18.783C14.2141 17.5625 14.6892 16.4149 15.553 15.5511C16.4163 14.6872 17.5639 14.2116 18.785 14.2116C20.0061 14.2116 21.1542 14.6872 22.0175 15.5511C22.8814 16.4149 23.357 17.563 23.357 18.7836C23.357 20.0041 22.8819 21.1523 22.0175 22.0167C21.1537 22.8805 20.0067 23.355 18.785 23.355C17.5633 23.355 16.4152 22.8794 15.553 22.0161Z" fill="url(#paint0_linear_55_657)"/>
</g>
<defs>
<linearGradient id="paint0_linear_55_657" x1="20.0013" y1="12" x2="20.0013" y2="28.0006" gradientUnits="userSpaceOnUse">
<stop stop-color="#FE858D"/>
<stop offset="1" stop-color="#FE616B"/>
</linearGradient>
<clipPath id="clip0_55_657">
<rect width="16" height="16.0006" fill="white" transform="translate(12 12)"/>
</clipPath>
</defs>
</svg>
